<svg xmlns:dc="http://purl.org/dc/elements/1.1/" xmlns:cc="http://creativecommons.org/ns#" xmlns:rdf="http://www.w3.org/1999/02/22-rdf-syntax-ns#" xmlns:svg="http://www.w3.org/2000/svg" xmlns="http://www.w3.org/2000/svg" xmlns:sodipodi="http://sodipodi.sourceforge.net/DTD/sodipodi-0.dtd" xmlns:inkscape="http://www.inkscape.org/namespaces/inkscape" width="100" height="100" id="svg3604" version="1.1" inkscape:version="0.48.3.1 r9886" sodipodi:docname="hut.svg">
  <defs id="defs3606"/>
  <sodipodi:namedview id="base" pagecolor="#ffffff" bordercolor="#666666" borderopacity="1.0" inkscape:pageopacity="0.0" inkscape:pageshadow="2" inkscape:zoom="2.4088656" inkscape:cx="14.006659" inkscape:cy="57.661017" inkscape:document-units="px" inkscape:current-layer="layer1" showgrid="false" inkscape:window-width="1366" inkscape:window-height="721" inkscape:window-x="-4" inkscape:window-y="-4" inkscape:window-maximized="1"/>
  <metadata id="metadata3609">
    <rdf:RDF>
      <cc:Work rdf:about="">
        <dc:format>image/svg+xml</dc:format>
        <dc:type rdf:resource="http://purl.org/dc/dcmitype/StillImage"/>
        <dc:title/>
      </cc:Work>
    </rdf:RDF>
  </metadata>
  <g inkscape:label="Layer 1" inkscape:groupmode="layer" id="layer1" transform="translate(0,-952.36218)">
    <path style="font-size:medium;font-style:normal;font-variant:normal;font-weight:normal;font-stretch:normal;text-indent:0;text-align:start;text-decoration:none;line-height:normal;letter-spacing:normal;word-spacing:normal;text-transform:none;direction:ltr;block-progression:tb;writing-mode:lr-tb;text-anchor:start;baseline-shift:baseline;color:#000000;fill:#000000;fill-opacity:1;fill-rule:nonzero;stroke:none;stroke-width:20;marker:none;visibility:visible;display:inline;overflow:visible;enable-background:accumulate;font-family:Sans;-inkscape-font-specification:Sans" d="m 27.99653,952.3622 c -8.328213,0 -15.112917,6.78457 -15.112917,15.11287 0,8.3282 6.784704,15.1709 15.112917,15.1709 8.3282,0 15.17081,-6.8427 15.17081,-15.1709 0,-8.3283 -6.84261,-15.11287 -15.17081,-15.11287 z m 44.00694,0 c -8.32822,0 -15.17081,6.78457 -15.17081,15.11287 0,8.3282 6.84259,15.1709 15.17081,15.1709 8.32821,0 15.11292,-6.8427 15.11292,-15.1709 0,-8.3283 -6.78471,-15.11287 -15.11292,-15.11287 z m -44.00694,6.89057 c 4.58054,0 8.22235,3.6417 8.22235,8.2223 0,4.5807 -3.64181,8.2224 -8.22235,8.2224 -4.58056,0 -8.222355,-3.6417 -8.222355,-8.2224 0,-4.5806 3.641795,-8.2223 8.222355,-8.2223 z m 44.00694,0 c 4.58053,0 8.22236,3.6417 8.22236,8.2223 0,4.5807 -3.64183,8.2224 -8.22236,8.2224 -4.58054,0 -8.22235,-3.6417 -8.22235,-8.2224 0,-4.5806 3.64181,-8.2223 8.22235,-8.2223 z m -21.88766,19.5136 c -8.32825,0 -15.17082,6.7846 -15.17082,15.1129 0,8.32823 6.84257,15.17083 15.17082,15.17083 8.32821,0 15.11291,-6.8426 15.11291,-15.17083 0,-8.3283 -6.7847,-15.1129 -15.11291,-15.1129 z m -32.310367,3.8217 c -4.429193,0 -8.106543,3.6775 -8.106543,8.1065 l 0,53.15583 c 0,4.4292 3.67735,8.1065 8.106543,8.1065 l 11.117547,0 0,-6.9485 -11.117547,0 c -0.707446,0 -1.215981,-0.4506 -1.215981,-1.158 l 0,-53.15583 c 0,-0.7074 0.508535,-1.1581 1.215981,-1.1581 a 3.4742328,3.4742328 0 0 0 0,-6.9484 z m 64.389117,0 a 3.4742328,3.4742328 0 1 0 0,6.9484 c 0.70744,0 1.15807,0.4507 1.15807,1.1581 l 0,53.15583 c 0,0.7074 -0.45063,1.158 -1.15807,1.158 l -11.17545,0 0,6.9485 11.17545,0 c 4.42921,0 8.10654,-3.6773 8.10654,-8.1065 l 0,-53.15584 c 0,-4.429 -3.67733,-8.1065 -8.10654,-8.1065 z m -32.07875,3.0689 c 4.58054,0 8.16444,3.6421 8.16444,8.2223 0,4.5806 -3.5839,8.22243 -8.16444,8.22243 -4.58056,0 -8.22235,-3.64183 -8.22235,-8.22243 0,-4.58021 3.64179,-8.2223 8.22235,-8.2223 z m -10.24899,26.51993 c -4.42925,0 -8.10654,3.6196 -8.10654,8.0487 l 0,24.0301 c 0,4.429 3.67729,8.1065 8.10654,8.1065 l 20.44007,0 c 4.42925,0 8.10654,-3.6775 8.10654,-8.1065 l 0,-24.0301 c 0,-4.4291 -3.67729,-8.0487 -8.10654,-8.0487 -0.91586,0 -1.8376,0.3413 -2.48987,0.9844 -0.65226,0.643 -1.04227,1.5161 -1.04227,2.432 0,0.9159 0.39001,1.8467 1.04227,2.4898 0.65227,0.6432 1.57401,0.997 2.48987,0.9844 0.70747,0 1.15808,0.4506 1.15808,1.1581 l 0,24.0301 c 0,0.7072 -0.45061,1.1581 -1.15808,1.1581 l -20.44007,0 c -0.70746,0 -1.15808,-0.4509 -1.15808,-1.1581 l 0,-24.0301 c 0,-0.7075 0.45062,-1.1581 1.15808,-1.1581 0.91588,0 1.8376,-0.3412 2.48987,-0.9844 0.65226,-0.6431 1.04227,-1.5739 1.04227,-2.4898 0,-0.9159 -0.39001,-1.789 -1.04227,-2.432 -0.65227,-0.6431 -1.57399,-0.9973 -2.48987,-0.9844 z" id="path5986" inkscape:connector-curvature="0"/>
  </g>
</svg>