<svg xmlns="http://www.w3.org/2000/svg" xmlns:xlink="http://www.w3.org/1999/xlink" version="1.1" x="0px" y="0px" width="100px" height="100px" viewBox="0 0 100 100" enable-background="new 0 0 100 100" xml:space="preserve">
<g id="Captions">
	<rect x="-192" width="185" height="99"/>
	<rect y="-36" width="100" height="30"/>
	<text transform="matrix(1 0 0 1 66 -19.5)" fill="#000000" font-family="'Helvetica'" font-size="2.4">http://thenounproject.com</text>
	<text transform="matrix(1 0 0 1 7.166 -24.5)"><tspan x="0" y="0" fill="#000000" font-family="'Helvetica-Bold'" font-size="6.1578">The Noun Project</tspan><tspan x="1.12" y="4.8" fill="#000000" font-family="'Helvetica-Bold'" font-size="4">Icon Template</tspan></text>
	<text transform="matrix(1 0 0 1 -178.5 10.5)" fill="#000000" font-family="'Helvetica-Bold'" font-size="6.1578">Reminders</text>
	<line fill="#000000" stroke="#FFFFFF" stroke-miterlimit="10" x1="8" y1="-14.5" x2="18" y2="-14.5"/>
	<line fill="#000000" stroke="#FFFFFF" stroke-miterlimit="10" x1="-179" y1="16.5" x2="-162" y2="16.5"/>
	<g>
		<g>
			<g>
				<rect x="-170.802" y="31.318" fill="#000000" width="8.721" height="8.642"/>
				<path fill="#000000" d="M-164.455,42.312h4.747v-4.703h-4.747V42.312z M-159.266,42.749h-5.63V37.17h5.63V42.749      L-159.266,42.749z M-166.221,44.062h8.279v-8.203h-8.279V44.062L-166.221,44.062z M-157.5,44.5h-9.163v-9.079h9.163V44.5      L-157.5,44.5z"/>
				<polygon fill="#000000" points="-166.149,44.133 -166.292,43.991 -158.013,35.787 -157.871,35.929     "/>
			</g>
		</g>
	</g>
	<rect x="-179" y="58" fill="none" width="35" height="32.5"/>
	<text transform="matrix(1 0 0 1 -179 60.1572)"><tspan x="0" y="0" fill="#000000" font-family="'Helvetica-Bold'" font-size="3">Strokes</tspan><tspan x="0" y="5" fill="#000000" font-family="'Helvetica'" font-size="2.4">Try to keep strokes at 4px</tspan><tspan x="0" y="10" fill="#000000" font-family="'Helvetica'" font-size="2.4">Minimum stroke weight is 2px</tspan><tspan x="0" y="14.5" fill="#000000" font-family="'Helvetica'" font-size="2.4">For thicker strokes use even </tspan><tspan x="0" y="17.5" fill="#000000" font-family="'Helvetica'" font-size="2.4">numbers: 6px, 8px etc.</tspan><tspan x="0" y="22" fill="#000000" font-family="'Helvetica-Bold'" font-size="2.4">Remember to expand strokes </tspan><tspan x="0" y="25" fill="#000000" font-family="'Helvetica-Bold'" font-size="2.4">before saving as an SVG </tspan></text>
	<rect x="-136.5" y="58" fill="none" width="35" height="32.5"/>
	<text transform="matrix(1 0 0 1 -136.5 60.1572)"><tspan x="0" y="0" fill="#000000" font-family="'Helvetica-Bold'" font-size="3">Size</tspan><tspan x="0" y="5" fill="#000000" font-family="'Helvetica'" font-size="2.4">Cannot be wider or taller than </tspan><tspan x="0" y="8.5" fill="#000000" font-family="'Helvetica'" font-size="2.4">100px (artboard size)</tspan><tspan x="0" y="13.5" fill="#000000" font-family="'Helvetica'" font-size="2.4">Scale your icon to fill as much of </tspan><tspan x="0" y="16.5" fill="#000000" font-family="'Helvetica'" font-size="2.4">the artboard as possible</tspan></text>
	<rect x="-94" y="58" fill="none" width="35" height="32.5"/>
	<text transform="matrix(1 0 0 1 -94 60.1572)"><tspan x="0" y="0" fill="#000000" font-family="'Helvetica-Bold'" font-size="3">Ungroup</tspan><tspan x="0" y="5" fill="#000000" font-family="'Helvetica'" font-size="2.4">If your design has more than one </tspan><tspan x="0" y="8" fill="#000000" font-family="'Helvetica'" font-size="2.4">shape, make sure to ungroup</tspan></text>
	<rect x="-50" y="58" fill="none" width="35" height="32.5"/>
	<text transform="matrix(1 0 0 1 -50 60.1572)"><tspan x="0" y="0" fill="#000000" font-family="'Helvetica-Bold'" font-size="3">Save as</tspan><tspan x="0" y="5" fill="#000000" font-family="'Helvetica'" font-size="2.4">Save as .SVG and make sure </tspan><tspan x="0" y="8" fill="#000000" font-family="'Helvetica'" font-size="2.4">&#8220;Use Artboards&#8221; is checked</tspan></text>
	<text transform="matrix(1.0074 0 0 1 -125.542 30.5933)" fill="#000000" font-family="'Helvetica'" font-size="2.5731">100px</text>
	<text transform="matrix(1.0074 0 0 1 -41 39)" fill="#000000" font-family="'Helvetica-Bold'" font-size="5.1462">.SVG</text>
	<rect x="-126.514" y="34.815" fill="#000000" width="10.261" height="10.185"/>
	<rect x="-126.477" y="31.766" fill="#000000" width="0.522" height="2.337"/>
	<rect x="-116.812" y="31.766" fill="#000000" width="0.523" height="2.337"/>
	<rect x="-127" y="32.337" fill="#000000" width="11.233" height="0.572"/>
	<g>
		<rect x="-83.805" y="33.844" fill="#000000" width="10.305" height="10.156"/>
		<rect x="-76.809" y="28.707" fill="#000000" width="3.308" height="3.261"/>
	</g>
	<rect x="-178.5" y="22.5" fill="#000000" stroke="#FFFFFF" stroke-miterlimit="10" width="30" height="30"/>
	<rect x="-136.5" y="22.5" fill="#000000" stroke="#FFFFFF" stroke-miterlimit="10" width="30" height="30"/>
	<rect x="-93.5" y="22.5" fill="#000000" stroke="#FFFFFF" stroke-miterlimit="10" width="30" height="30"/>
	<rect x="-49.5" y="22.5" fill="#000000" stroke="#FFFFFF" stroke-miterlimit="10" width="30" height="30"/>
</g>
<g id="Your_Icon">
	<path fill="#000000" d="M39.259,34.884c2.818,0.772,6.537,1.198,10.471,1.198c3.936,0,7.654-0.426,10.472-1.198   c3.531-0.969,5.321-2.406,5.321-4.273s-1.79-3.305-5.321-4.273c-2.817-0.772-6.536-1.198-10.472-1.198   c-3.935,0-7.653,0.426-10.471,1.198c-3.53,0.968-5.32,2.406-5.32,4.273S35.729,33.915,39.259,34.884z M40.806,29.186   c2.463-0.583,5.632-0.905,8.925-0.905c3.294,0,6.463,0.321,8.927,0.905c2.209,0.522,3.231,1.106,3.603,1.425   c-0.371,0.319-1.394,0.902-3.603,1.425c-2.464,0.583-5.633,0.905-8.927,0.905c-3.292,0-6.462-0.321-8.925-0.905   c-2.209-0.523-3.233-1.105-3.603-1.425C37.573,30.292,38.596,29.708,40.806,29.186z"/>
	<path d="M88.752,46.331l-0.663-1.664c-0.07-0.584-0.234-1.088-0.375-1.437c0.197-0.345,0.331-0.704,0.4-1.077   c0.353-1.908-1.151-3.333-1.215-3.393l-0.293-0.273c-0.062-1.54-1.209-2.627-1.265-2.679l-1.075-1.001l-0.355,1.425   c-0.533,2.128-2.344,2.712-6.756,3.941c-1.926,0.537-4.323,1.205-7.094,2.22c-1.335,0.488-2.527,1.054-3.561,1.686   c-0.302-0.248-0.613-0.488-0.936-0.724c-4.193-3.048-9.741-4.727-15.623-4.727s-11.43,1.679-15.623,4.727   c-0.43,0.312-0.839,0.636-1.23,0.968c-1.121-0.731-2.443-1.378-3.952-1.93c-2.77-1.015-5.167-1.683-7.092-2.22   c-4.412-1.229-6.223-1.813-6.755-3.941l-0.356-1.425l-1.075,1.001c-0.056,0.052-1.202,1.14-1.265,2.679l-0.292,0.273   c-0.064,0.06-1.568,1.485-1.214,3.393c0.069,0.373,0.203,0.732,0.4,1.077c-0.141,0.349-0.306,0.853-0.376,1.437l-0.662,1.664   c-0.03,0.075-0.719,1.86,0.335,3.818c0.522,0.969,1.362,1.797,2.513,2.477l0.151,0.631c0.733,3.066,4.736,4.254,8.607,5.402   c3.145,0.934,6.396,1.898,7.309,3.694c0.489,0.965,1.102,1.946,1.988,2.266c0.854,0.948,1.845,1.837,2.968,2.653   C38.512,70.321,44.061,72,49.942,72s11.43-1.679,15.623-4.728c2.415-1.756,4.227-3.851,5.359-6.146   c1.447-1.064,3.864-1.767,6.221-2.467c3.872-1.148,7.873-2.336,8.607-5.402l0.151-0.631c1.149-0.68,1.991-1.506,2.513-2.477   C89.47,48.191,88.781,46.406,88.752,46.331z M85.929,42.762c-0.527,0.616-1.464,1.204-2.773,1.732   c-1.594,0.644-3.424,1.167-5.195,1.675c-2.576,0.737-5.223,1.496-7.381,2.676c-0.17-0.305-0.354-0.604-0.549-0.901   c0.676-0.351,1.408-0.677,2.193-0.973c2.788-1.049,5.203-1.724,7.146-2.265c3.2-0.894,5.574-1.558,6.876-3.205L85.929,42.762z    M86.221,46.114c-0.346,0.802-1.241,1.385-2.659,1.732c-1.295,0.316-2.787,0.755-5.26,1.48c-1.164,0.343-2.484,0.731-4.124,1.207   c-0.825,0.238-1.64,0.582-2.437,1.023c-0.062-0.204-0.131-0.406-0.203-0.609c0.795-0.441,1.684-0.824,2.656-1.142   c1.785-0.583,3.455-1.049,4.928-1.458c3.225-0.896,5.807-1.613,7.268-2.996C86.378,45.606,86.328,45.864,86.221,46.114z    M70.659,44.021c2.705-0.99,5.064-1.648,6.962-2.177c3.436-0.958,5.946-1.657,7.229-3.51c0.031,0.175,0.036,0.362,0.001,0.553   c-0.176,0.949-1.3,1.868-3.254,2.656c-1.593,0.645-3.424,1.168-5.193,1.676c-2.738,0.782-5.549,1.589-7.775,2.898   c-0.246-0.278-0.506-0.553-0.775-0.821C68.683,44.827,69.62,44.402,70.659,44.021z M12.957,41.501   c1.301,1.647,3.676,2.312,6.876,3.205c1.941,0.541,4.356,1.216,7.145,2.265c0.987,0.372,1.89,0.79,2.7,1.249   c-0.19,0.303-0.369,0.611-0.534,0.923c-2.247-1.354-5.114-2.177-7.903-2.974c-1.771-0.508-3.601-1.031-5.195-1.675   c-1.31-0.528-2.245-1.116-2.774-1.731L12.957,41.501z M25.007,49.807c1.212,0.396,2.291,0.893,3.224,1.479   c-0.067,0.203-0.129,0.41-0.186,0.617c-0.982-0.613-1.993-1.071-3.022-1.369c-1.639-0.476-2.959-0.864-4.124-1.207   c-2.473-0.726-3.965-1.164-5.259-1.48c-1.414-0.347-2.308-0.928-2.656-1.725c-0.11-0.252-0.161-0.514-0.173-0.77   c1.461,1.383,4.043,2.1,7.268,2.996C21.552,48.758,23.221,49.224,25.007,49.807z M14.352,38.334   c1.284,1.852,3.792,2.551,7.229,3.509c1.896,0.528,4.257,1.187,6.962,2.177c1.224,0.449,2.307,0.961,3.238,1.528   c-0.266,0.274-0.518,0.555-0.761,0.84c-2.29-1.475-5.297-2.335-8.221-3.171c-1.771-0.508-3.602-1.031-5.196-1.676   c-1.946-0.785-3.07-1.7-3.252-2.646C14.314,38.702,14.319,38.513,14.352,38.334z M12.328,49.359   c-0.024-0.044-0.047-0.087-0.067-0.129c1.53,0.999,3.826,1.599,6.467,2.288c2.452,0.641,5.231,1.365,7.792,2.546   c0.374,0.173,0.735,0.376,1.082,0.604c-0.007,0.125-0.011,0.252-0.013,0.379c-2.777-1.045-6.246-1.838-9.396-2.492   C15.163,51.927,13.134,50.82,12.328,49.359z M22.548,56.997c-2.535-0.752-5.134-1.523-6.5-2.734   c2.78,0.561,8.044,1.803,11.828,3.775c0.072,0.332,0.156,0.663,0.254,0.99C26.53,58.179,24.52,57.583,22.548,56.997z    M49.942,68.858c-5.223,0-10.115-1.466-13.775-4.127c-3.509-2.552-5.441-5.896-5.441-9.417s1.932-6.866,5.441-9.417   c3.66-2.661,8.552-4.127,13.775-4.127c5.224,0,10.115,1.466,13.774,4.127c3.509,2.551,5.441,5.896,5.441,9.417   s-1.933,6.865-5.441,9.417C60.058,67.393,55.166,68.858,49.942,68.858z M76.653,56.997c-1.659,0.493-3.343,0.993-4.79,1.646   c0.087-0.325,0.159-0.652,0.221-0.983c3.702-1.754,8.47-2.872,11.067-3.396C81.786,55.474,79.188,56.245,76.653,56.997z    M86.89,49.327c-0.795,1.479-2.828,2.595-5.882,3.229c-2.888,0.6-6.061,1.32-8.718,2.248c-0.008-0.177-0.019-0.352-0.033-0.527   c0.14-0.074,0.281-0.146,0.424-0.212c2.562-1.181,5.34-1.905,7.793-2.546c2.641-0.689,4.936-1.289,6.467-2.288   C86.924,49.263,86.907,49.295,86.89,49.327z"/>
</g>
</svg>