<svg xmlns="http://www.w3.org/2000/svg" xmlns:xlink="http://www.w3.org/1999/xlink" version="1.1" id="Layer_1" x="0px" y="0px" width="100px" height="92.316px" viewBox="0 0 100 92.316" enable-background="new 0 0 100 92.316" xml:space="preserve">
<path d="M40.413,66.97l2.469-5.306l-17.455-8.317v13.243H5.025L2.51,65.166c-0.807-0.462-1.834-0.178-2.291,0.629  c-0.457,0.808-0.178,1.829,0.629,2.291l3.975,2.278v19.057c0,1.602,1.299,2.896,2.901,2.896c1.603,0,2.901-1.294,2.901-2.896  l-0.006-7.464l5.257,8.876c0.819,1.377,2.599,1.827,3.98,1.009c1.371-0.819,1.822-2.611,1.004-3.987l-4.896-8.235h10.979v9.802  c0,1.602,1.293,2.896,2.894,2.896c1.603,0,2.908-1.294,2.908-2.896v-9.802c0.866,0,0.95-0.569,0.95-1.234v-7.31l-0.012-0.007v-4.086  L40.413,66.97z"/>
<path id="path7240_2_" d="M61.411,24.577c-3.675-0.734-6.064-4.352-5.322-8.067c0.747-3.724,4.343-6.131,8.018-5.395  c3.684,0.737,6.062,4.341,5.318,8.064C68.682,22.893,65.093,25.315,61.411,24.577"/>
<path d="M97.344,38.985l-23.4-14.696c0,0-5.158-2.519-8.119,2.18c0,0-0.302,0.406-0.597,1.091c-0.117,0.223-0.218,0.457-0.28,0.712  l-6.401,26.476c-0.401,1.656,0.618,3.323,2.273,3.723c0.243,0.06,0.486,0.088,0.727,0.088c1.393,0,2.654-0.948,2.996-2.36  l4.322-17.877l12.878,19.078l0.065,30.297c0.035,0.299,0.233,4.62,4.974,4.62c3.178,0,5.298-2.871,5.077-4.797  c0,0,0.075-37.761,0.003-37.751c-0.223-2.805-1.003-4.245-2.082-5.986l-2.639-3.06l8.883,5.1c1.796,0.359,3.548-0.817,3.912-2.638  C100.299,41.364,99.023,39.824,97.344,38.985z"/>
<path d="M55.953,61.942c-3.566-1.878-6.582-2.227-6.582-2.227v4.848h-6.684l-1.114,2.43l19.95-0.034  C61.523,66.959,59.801,63.969,55.953,61.942z"/>
</svg>