<svg xmlns="http://www.w3.org/2000/svg" xmlns:xlink="http://www.w3.org/1999/xlink" version="1.1" id="Layer_1" x="0px" y="0px" width="100px" height="100px" viewBox="0 0 100 100" enable-background="new 0 0 100 100" xml:space="preserve">
<g id="Your_Icon" display="none">
	<path display="inline" fill="#000000" d="M39.259,34.884c2.818,0.772,6.537,1.198,10.471,1.198c3.936,0,7.654-0.426,10.472-1.198   c3.53-0.969,5.321-2.406,5.321-4.273c0-1.867-1.791-3.305-5.321-4.273c-2.817-0.772-6.536-1.198-10.472-1.198   c-3.935,0-7.653,0.426-10.471,1.198c-3.53,0.968-5.32,2.406-5.32,4.273C33.939,32.478,35.729,33.915,39.259,34.884z M40.806,29.186   c2.463-0.583,5.632-0.905,8.925-0.905c3.294,0,6.462,0.321,8.927,0.905c2.209,0.522,3.23,1.106,3.604,1.425   c-0.371,0.319-1.395,0.902-3.604,1.425c-2.465,0.583-5.633,0.905-8.927,0.905c-3.292,0-6.462-0.321-8.925-0.905   c-2.209-0.523-3.233-1.105-3.603-1.425C37.573,30.292,38.596,29.708,40.806,29.186z"/>
	<path display="inline" fill="#000000" d="M88.752,46.331l-0.663-1.664c-0.069-0.584-0.233-1.088-0.375-1.437   c0.197-0.345,0.331-0.704,0.399-1.077c0.354-1.908-1.15-3.333-1.215-3.393l-0.293-0.273c-0.062-1.54-1.209-2.627-1.265-2.679   l-1.075-1.001l-0.354,1.425c-0.533,2.128-2.345,2.712-6.757,3.941c-1.926,0.537-4.322,1.205-7.094,2.22   c-1.334,0.488-2.526,1.054-3.561,1.686c-0.302-0.248-0.613-0.488-0.936-0.724c-4.193-3.048-9.741-4.727-15.624-4.727   c-5.882,0-11.43,1.679-15.623,4.727c-0.43,0.312-0.839,0.636-1.23,0.968c-1.121-0.731-2.443-1.378-3.952-1.93   c-2.77-1.015-5.167-1.683-7.092-2.22c-4.412-1.229-6.223-1.813-6.755-3.941l-0.356-1.425l-1.075,1.001   c-0.056,0.052-1.202,1.14-1.265,2.679l-0.292,0.273c-0.064,0.06-1.568,1.485-1.214,3.393c0.069,0.373,0.203,0.732,0.4,1.077   c-0.141,0.349-0.306,0.853-0.376,1.437l-0.662,1.664c-0.03,0.075-0.719,1.86,0.335,3.818c0.522,0.969,1.362,1.796,2.513,2.477   l0.151,0.631c0.733,3.066,4.736,4.254,8.607,5.402c3.145,0.934,6.396,1.897,7.309,3.694c0.489,0.965,1.102,1.945,1.988,2.266   c0.854,0.947,1.845,1.837,2.968,2.652C38.512,70.32,44.061,72,49.942,72c5.881,0,11.43-1.68,15.623-4.729   c2.416-1.756,4.228-3.851,5.359-6.146c1.447-1.063,3.864-1.767,6.221-2.467c3.873-1.148,7.873-2.336,8.607-5.402l0.15-0.631   c1.149-0.681,1.992-1.506,2.514-2.477C89.471,48.191,88.781,46.406,88.752,46.331z M85.93,42.762   c-0.527,0.616-1.465,1.204-2.773,1.732c-1.594,0.644-3.424,1.167-5.195,1.675c-2.576,0.737-5.223,1.496-7.381,2.676   c-0.17-0.305-0.354-0.604-0.549-0.901c0.676-0.351,1.408-0.677,2.193-0.973c2.787-1.049,5.202-1.724,7.146-2.265   c3.2-0.894,5.573-1.558,6.876-3.205L85.93,42.762z M86.221,46.114c-0.346,0.802-1.24,1.385-2.658,1.732   c-1.295,0.316-2.787,0.755-5.261,1.48c-1.163,0.343-2.483,0.731-4.124,1.207c-0.824,0.238-1.64,0.582-2.437,1.023   c-0.062-0.205-0.132-0.406-0.203-0.609c0.795-0.441,1.685-0.824,2.655-1.142c1.785-0.583,3.455-1.049,4.929-1.458   c3.226-0.896,5.808-1.613,7.269-2.996C86.378,45.606,86.328,45.864,86.221,46.114z M70.659,44.021   c2.704-0.99,5.063-1.648,6.962-2.177c3.436-0.958,5.945-1.657,7.229-3.51c0.031,0.175,0.036,0.362,0.002,0.553   c-0.177,0.949-1.301,1.868-3.254,2.656c-1.594,0.645-3.425,1.168-5.193,1.676c-2.738,0.782-5.549,1.589-7.775,2.898   c-0.246-0.278-0.506-0.553-0.775-0.821C68.684,44.827,69.62,44.402,70.659,44.021z M12.957,41.501   c1.301,1.647,3.676,2.312,6.876,3.205c1.941,0.541,4.356,1.216,7.145,2.265c0.987,0.372,1.89,0.79,2.7,1.249   c-0.19,0.303-0.369,0.611-0.534,0.923c-2.247-1.354-5.114-2.177-7.903-2.974c-1.771-0.508-3.601-1.031-5.195-1.675   c-1.31-0.528-2.245-1.116-2.774-1.731L12.957,41.501z M25.007,49.807c1.212,0.396,2.291,0.893,3.224,1.479   c-0.067,0.203-0.129,0.409-0.186,0.616c-0.982-0.612-1.993-1.07-3.022-1.368c-1.639-0.476-2.959-0.864-4.124-1.207   c-2.473-0.726-3.965-1.164-5.259-1.48c-1.414-0.347-2.308-0.928-2.656-1.725c-0.11-0.252-0.161-0.514-0.173-0.77   c1.461,1.383,4.043,2.1,7.268,2.996C21.552,48.758,23.221,49.224,25.007,49.807z M14.352,38.334   c1.284,1.852,3.792,2.551,7.229,3.509c1.896,0.528,4.257,1.188,6.962,2.177c1.224,0.449,2.307,0.961,3.238,1.528   c-0.266,0.274-0.518,0.555-0.761,0.84c-2.29-1.475-5.297-2.335-8.221-3.171c-1.771-0.508-3.602-1.031-5.196-1.676   c-1.946-0.785-3.07-1.7-3.252-2.646C14.314,38.702,14.319,38.513,14.352,38.334z M12.328,49.359   c-0.024-0.044-0.047-0.087-0.067-0.129c1.53,0.999,3.826,1.599,6.467,2.288c2.452,0.642,5.231,1.365,7.792,2.547   c0.374,0.172,0.735,0.375,1.082,0.604c-0.007,0.125-0.011,0.252-0.013,0.379c-2.777-1.045-6.246-1.838-9.396-2.492   C15.163,51.927,13.134,50.82,12.328,49.359z M22.548,56.997c-2.535-0.752-5.134-1.522-6.5-2.733   c2.78,0.561,8.044,1.803,11.828,3.774c0.072,0.332,0.156,0.663,0.254,0.989C26.53,58.18,24.52,57.583,22.548,56.997z    M49.942,68.857c-5.223,0-10.115-1.465-13.775-4.127c-3.509-2.551-5.441-5.896-5.441-9.416c0-3.521,1.932-6.866,5.441-9.417   c3.66-2.661,8.552-4.127,13.775-4.127c5.224,0,10.115,1.466,13.774,4.127c3.509,2.551,5.441,5.896,5.441,9.417   c0,3.521-1.933,6.865-5.441,9.416C60.059,67.393,55.166,68.857,49.942,68.857z M76.652,56.997   c-1.658,0.493-3.342,0.993-4.789,1.646c0.087-0.324,0.158-0.651,0.221-0.982c3.702-1.754,8.471-2.872,11.066-3.396   C81.786,55.475,79.188,56.245,76.652,56.997z M86.891,49.327c-0.795,1.479-2.828,2.595-5.883,3.229   c-2.888,0.6-6.061,1.319-8.718,2.248c-0.008-0.178-0.019-0.353-0.033-0.527c0.14-0.074,0.281-0.146,0.425-0.213   c2.562-1.181,5.34-1.904,7.793-2.545c2.641-0.689,4.936-1.29,6.467-2.289C86.924,49.263,86.907,49.295,86.891,49.327z"/>
</g>
<g>
	<path d="M72.629,73.929c-1.019,0.715-2.291,1.31-3.699,1.31c-0.971,0-1.949-0.292-2.906-0.867   c-1.709-1.028-2.817-3.943-3.292-5.188c-0.141-0.372-0.239-0.63-0.349-0.835c1.364-0.707,2.594-1.52,3.687-2.411   c3.737-2.859,5.8-6.539,5.8-10.485c0-0.651-0.074-1.291-0.184-1.926c-0.35-3.242-1.865-5.21-3.686-6.892   c1.613-1.831,4.599-5.964-0.345-12.644l-3.041-4.114l0.208,5.107c0.098,2.369-0.295,4.075-1.131,4.947   c-0.306,0.318-1.797,1.272-3.127,1.971c-0.507-0.2-1.024-0.382-1.551-0.553c0.074-0.112-4.516-1.375-9.348-1.445   c-4.833-0.07-10.747,1.931-11.339,2.176c-1.102-0.708-2.376-1.794-2.708-2.139c-0.838-0.872-1.212-2.587-1.115-4.956l0.243-5.11   l-2.974,4.111c-4.842,6.544-1.945,10.643-0.31,12.53c-2.597,2.587-4.002,5.672-4.002,8.936c0,4.271,2.391,8.242,6.733,11.185   c1.081,0.732,2.256,1.374,3.5,1.93c3.476,1.793,7.425,2.764,11.892,2.764c1.773,0,3.572-0.161,5.344-0.483   c0.021-0.001,0.063-0.003,0.13-0.003c0.532,0,1.61,0.1,2.565,0.456c0.092,0.177,0.211,0.417,0.313,0.626   c0.795,1.611,2.126,4.308,4.314,5.709c2.208,1.415,4.433,2.132,6.613,2.132c3.527,0,6.127-1.845,7.643-3.394l2.521,5.478   l0.947-14.641L68.099,73.1L72.629,73.929z M30.924,57.675c-0.206-0.729-0.32-1.472-0.32-2.224c0-3.196,1.901-6.243,5.354-8.582   c3.64-2.465,8.508-3.823,13.709-3.823c5.2,0,10.067,1.358,13.707,3.823c0.468,0.317,0.901,0.649,1.312,0.991   c0.074,0.095,0.158,0.185,0.253,0.265c0.289,0.244,0.554,0.478,0.807,0.709c1.524,1.554,2.482,3.298,2.826,5.122   c0.029,0.327,0.049,0.667,0.049,1.035c0,3.167-1.667,6.189-4.594,8.557c-0.217,0.162-0.422,0.329-0.652,0.485   c-3.64,2.465-8.507,3.824-13.707,3.824c-5.201,0-10.069-1.359-13.709-3.824c-1.494-1.012-2.677-2.162-3.562-3.394   C31.738,59.693,31.235,58.702,30.924,57.675z M65.96,42.119c0.497-0.518,0.903-1.141,1.216-1.866   c0.277,2.075-0.736,3.407-1.583,4.357c-0.156-0.112-0.296-0.233-0.458-0.343c-0.416-0.282-0.855-0.542-1.298-0.798   C64.648,43.177,65.37,42.733,65.96,42.119z M32.117,40.269c0.314,0.727,0.72,1.371,1.218,1.889   c0.578,0.603,1.278,1.062,2.069,1.366c-0.411,0.241-0.822,0.481-1.21,0.744c-0.172,0.116-0.32,0.244-0.486,0.364   C32.86,43.681,31.84,42.353,32.117,40.269z"/>
</g>
</svg>